<svg width="42" height="42" viewBox="0 0 42 42" xmlns="http://www.w3.org/2000/svg">
    <symbol id="twitter">
        <rect x="0.493301" y="0.5" width="41" height="41" />
        <rect x="0.493301" y="0.5" width="41" height="41" />
        <path
            d="M28.9375 16.9264C28.9502 17.104 28.9502 17.2817 28.9502 17.4594C28.9502 22.8781 24.8258 29.1218 17.2878 29.1218C14.9654 29.1218 12.8081 28.4492 10.9933 27.2817C11.3233 27.3198 11.6405 27.3325 11.9832 27.3325C13.8994 27.3325 15.6634 26.6853 17.072 25.5812C15.27 25.5431 13.7598 24.3629 13.2395 22.7386C13.4933 22.7766 13.7471 22.802 14.0137 22.802C14.3817 22.802 14.7497 22.7512 15.0923 22.6624C13.2142 22.2817 11.8055 20.632 11.8055 18.6396V18.5888C12.3512 18.8934 12.9857 19.0838 13.6583 19.1091C12.5542 18.3731 11.8309 17.1167 11.8309 15.6954C11.8309 14.934 12.0339 14.236 12.3892 13.6269C14.407 16.1142 17.44 17.7385 20.841 17.9162C20.7776 17.6117 20.7395 17.2944 20.7395 16.9772C20.7395 14.7183 22.5669 12.8782 24.8385 12.8782C26.0187 12.8782 27.0846 13.3731 27.8334 14.1726C28.7598 13.9949 29.6481 13.6523 30.4349 13.1827C30.1303 14.1345 29.4831 14.934 28.6329 15.4416C29.4578 15.3528 30.2573 15.1243 30.9933 14.8071C30.435 15.6193 29.737 16.3426 28.9375 16.9264Z"
            fill="#18B5DC" />
    </symbol>
    <symbol id="facebook">
        <rect x="0.493301" y="0.5" width="41" height="41" />
        <rect x="0.493301" y="0.5" width="41" height="41" />
        <path
            d="M25.7725 22.25L26.3429 18.6305H22.7764V16.2816C22.7764 15.2914 23.2746 14.3262 24.8719 14.3262H26.4933V11.2445C26.4933 11.2445 25.0219 11 23.6151 11C20.678 11 18.7582 12.7336 18.7582 15.8719V18.6305H15.4933V22.25H18.7582V31H22.7764V22.25H25.7725Z"
            fill="#18B5DC" />

    </symbol>
    <symbol id="instagram">
        <rect x="0.5" y="-0.5" width="41.0045" height="41" transform="matrix(1 0 0 -1 -0.00669861 41)" />
        <rect x="0.5" y="-0.5" width="41.0045" height="41" transform="matrix(1 0 0 -1 -0.00669861 41)" />
        <path
            d="M20.9978 26.1277C18.1594 26.1277 15.87 23.8383 15.87 21C15.87 18.1617 18.1594 15.8723 20.9978 15.8723C23.8361 15.8723 26.1255 18.1617 26.1255 21C26.1255 23.8383 23.8361 26.1277 20.9978 26.1277ZM20.9978 17.6663C19.1636 17.6663 17.6641 19.1613 17.6641 21C17.6641 22.8387 19.1591 24.3337 20.9978 24.3337C22.8364 24.3337 24.3315 22.8387 24.3315 21C24.3315 19.1613 22.832 17.6663 20.9978 17.6663ZM27.5313 26.3375C27.5313 25.6725 26.9958 25.1415 26.3353 25.1415C25.6703 25.1415 25.1392 25.677 25.1392 26.3375C25.1392 26.998 25.6748 27.5335 26.3353 27.5335C26.9958 27.5335 27.5313 26.998 27.5313 26.3375ZM30.9275 25.1236C30.8516 26.7258 30.4857 28.1449 29.3119 29.3142C28.1427 30.4834 26.7235 30.8494 25.1214 30.9297C23.4702 31.0234 18.5209 31.0234 16.8697 30.9297C15.272 30.8538 13.8528 30.4879 12.6791 29.3186C11.5054 28.1494 11.1439 26.7302 11.0636 25.1281C10.9699 23.4768 10.9699 18.5276 11.0636 16.8764C11.1395 15.2742 11.5054 13.8551 12.6791 12.6858C13.8528 11.5166 15.2675 11.1506 16.8697 11.0703C18.5209 10.9766 23.4702 10.9766 25.1214 11.0703C26.7235 11.1462 28.1427 11.5121 29.3119 12.6858C30.4812 13.8551 30.8471 15.2742 30.9275 16.8764C31.0212 18.5276 31.0212 23.4724 30.9275 25.1236ZM28.7943 15.1047C28.4462 14.2299 27.7723 13.5561 26.8931 13.2035C25.5766 12.6814 22.4526 12.8019 20.9978 12.8019C19.5429 12.8019 16.4145 12.6858 15.1024 13.2035C14.2277 13.5516 13.5538 14.2255 13.2013 15.1047C12.6791 16.4212 12.7996 19.5451 12.7996 21C12.7996 22.4549 12.6836 25.5833 13.2013 26.8953C13.5494 27.7701 14.2232 28.4439 15.1024 28.7965C16.4189 29.3186 19.5429 29.1981 20.9978 29.1981C22.4526 29.1981 25.5811 29.3142 26.8931 28.7965C27.7678 28.4484 28.4417 27.7745 28.7943 26.8953C29.3164 25.5788 29.1959 22.4549 29.1959 21C29.1959 19.5451 29.3164 16.4167 28.7943 15.1047Z"
            fill="#18B5DC" />

    </symbol>
    <symbol id="linkedin">
        <rect x="0.5" y="-0.5" width="41.0045" height="41" transform="matrix(1 0 0 -1 -0.00222778 41)" />
        <rect x="0.5" y="-0.5" width="41.0045" height="41" transform="matrix(1 0 0 -1 -0.00222778 41)" />
        <path
            d="M15.4767 31H11.3301V17.647H15.4767V31ZM13.4012 15.8256C12.0753 15.8256 10.9998 14.7273 10.9998 13.4014C10.9998 12.7645 11.2528 12.1537 11.7031 11.7034C12.1535 11.253 12.7643 11 13.4012 11C14.0381 11 14.6489 11.253 15.0992 11.7034C15.5496 12.1537 15.8026 12.7645 15.8026 13.4014C15.8026 14.7273 14.7266 15.8256 13.4012 15.8256ZM30.9958 31H26.8582V24.4999C26.8582 22.9507 26.8269 20.9641 24.7023 20.9641C22.5465 20.9641 22.2161 22.6471 22.2161 24.3882V31H18.074V17.647H22.0509V19.4685H22.109C22.6625 18.4194 24.0148 17.3122 26.0323 17.3122C30.2288 17.3122 31.0002 20.0756 31.0002 23.665V31H30.9958Z"
            fill="#18B5DC" />

    </symbol>
    <symbol id="telegram">
        <rect x="0.5" y="-0.5" width="41.0045" height="41" transform="matrix(1 0 0 -1 0.00222778 41)" />
        <rect x="0.5" y="-0.5" width="41.0045" height="41" transform="matrix(1 0 0 -1 0.00222778 41)" />
        <path
            d="M30.5498 14.4566L27.6524 28.0342C27.4338 28.9924 26.8637 29.2309 26.0536 28.7795L21.639 25.5469L19.5088 27.5827C19.273 27.817 19.0759 28.0129 18.6215 28.0129L18.9387 23.5452L27.1209 16.1985C27.4766 15.8833 27.0437 15.7087 26.568 16.0239L16.4528 22.3527L12.0981 20.9984C11.1509 20.7045 11.1337 20.0571 12.2953 19.6057L29.3282 13.0852C30.1169 12.7913 30.8069 13.2598 30.5498 14.4566Z"
            fill="#18B5DC" />

    </symbol>
</svg>