<svg width="42" height="42" viewBox="0 0 42 42" fill="none" xmlns="http://www.w3.org/2000/svg">
<rect width="42.0045" height="42" transform="matrix(1 0 0 -1 -0.00671387 42)" fill="#18B5DC"/>
<path d="M20.9977 26.1277C18.1594 26.1277 15.87 23.8383 15.87 21C15.87 18.1616 18.1594 15.8722 20.9977 15.8722C23.8361 15.8722 26.1255 18.1616 26.1255 21C26.1255 23.8383 23.8361 26.1277 20.9977 26.1277ZM20.9977 17.6663C19.1635 17.6663 17.664 19.1613 17.664 21C17.664 22.8387 19.1591 24.3337 20.9977 24.3337C22.8364 24.3337 24.3315 22.8387 24.3315 21C24.3315 19.1613 22.832 17.6663 20.9977 17.6663ZM27.5313 26.3375C27.5313 25.6725 26.9957 25.1415 26.3352 25.1415C25.6703 25.1415 25.1392 25.677 25.1392 26.3375C25.1392 26.998 25.6748 27.5335 26.3352 27.5335C26.9957 27.5335 27.5313 26.998 27.5313 26.3375ZM30.9275 25.1236C30.8516 26.7257 30.4856 28.1449 29.3119 29.3142C28.1427 30.4834 26.7235 30.8494 25.1214 30.9297C23.4701 31.0234 18.5209 31.0234 16.8697 30.9297C15.272 30.8538 13.8528 30.4879 12.6791 29.3186C11.5054 28.1494 11.1439 26.7302 11.0636 25.1281C10.9699 23.4768 10.9699 18.5276 11.0636 16.8764C11.1394 15.2742 11.5054 13.8551 12.6791 12.6858C13.8528 11.5166 15.2675 11.1506 16.8697 11.0703C18.5209 10.9766 23.4701 10.9766 25.1214 11.0703C26.7235 11.1461 28.1427 11.5121 29.3119 12.6858C30.4812 13.8551 30.8471 15.2742 30.9275 16.8764C31.0212 18.5276 31.0212 23.4724 30.9275 25.1236ZM28.7942 15.1046C28.4461 14.2299 27.7723 13.556 26.8931 13.2035C25.5766 12.6813 22.4526 12.8018 20.9977 12.8018C19.5429 12.8018 16.4145 12.6858 15.1024 13.2035C14.2277 13.5516 13.5538 14.2255 13.2013 15.1046C12.6791 16.4212 12.7996 19.5451 12.7996 21C12.7996 22.4549 12.6836 25.5833 13.2013 26.8953C13.5494 27.77 14.2232 28.4439 15.1024 28.7965C16.4189 29.3186 19.5429 29.1981 20.9977 29.1981C22.4526 29.1981 25.581 29.3142 26.8931 28.7965C27.7678 28.4484 28.4417 27.7745 28.7942 26.8953C29.3164 25.5788 29.1959 22.4549 29.1959 21C29.1959 19.5451 29.3164 16.4167 28.7942 15.1046Z" fill="white"/>
</svg>
