<svg width="42" height="42" viewBox="0 0 42 42" fill="none" xmlns="http://www.w3.org/2000/svg">
<rect width="42.0045" height="42" transform="matrix(1 0 0 -1 -0.00219727 42)" fill="#18B5DC"/>
<path d="M15.4766 31H11.3301V17.647H15.4766V31ZM13.4011 15.8256C12.0752 15.8256 10.9998 14.7273 10.9998 13.4014C10.9998 12.7645 11.2528 12.1537 11.7031 11.7034C12.1535 11.253 12.7643 11 13.4011 11C14.038 11 14.6488 11.253 15.0992 11.7034C15.5495 12.1537 15.8025 12.7645 15.8025 13.4014C15.8025 14.7273 14.7266 15.8256 13.4011 15.8256ZM30.9957 31H26.8581V24.4999C26.8581 22.9507 26.8269 20.9641 24.7023 20.9641C22.5464 20.9641 22.2161 22.6471 22.2161 24.3882V31H18.074V17.647H22.0509V19.4685H22.1089C22.6625 18.4194 24.0148 17.3122 26.0322 17.3122C30.2288 17.3122 31.0002 20.0756 31.0002 23.665V31H30.9957Z" fill="white"/>
</svg>
