<svg width="42" height="42" viewBox="0 0 42 42" fill="none" xmlns="http://www.w3.org/2000/svg">
    <rect width="42" height="42" transform="translate(-0.00671387)" fill="#18B5DC" />
    <path class="white"
        d="M28.9374 16.9264C28.9501 17.104 28.9501 17.2817 28.9501 17.4594C28.9501 22.8781 24.8258 29.1218 17.2877 29.1218C14.9654 29.1218 12.808 28.4492 10.9933 27.2817C11.3232 27.3198 11.6405 27.3325 11.9831 27.3325C13.8993 27.3325 15.6633 26.6853 17.072 25.5812C15.2699 25.5431 13.7598 24.3629 13.2395 22.7386C13.4933 22.7766 13.7471 22.802 14.0136 22.802C14.3816 22.802 14.7497 22.7512 15.0923 22.6624C13.2141 22.2817 11.8054 20.632 11.8054 18.6396V18.5888C12.3511 18.8934 12.9857 19.0838 13.6582 19.1091C12.5541 18.3731 11.8308 17.1167 11.8308 15.6954C11.8308 14.934 12.0338 14.236 12.3892 13.6269C14.407 16.1142 17.44 17.7385 20.8409 17.9162C20.7775 17.6117 20.7394 17.2944 20.7394 16.9772C20.7394 14.7183 22.5668 12.8782 24.8384 12.8782C26.0186 12.8782 27.0846 13.3731 27.8333 14.1726C28.7597 13.9949 29.648 13.6523 30.4348 13.1828C30.1302 14.1345 29.4831 14.934 28.6328 15.4416C29.4577 15.3528 30.2572 15.1244 30.9932 14.8071C30.4349 15.6193 29.7369 16.3426 28.9374 16.9264Z"
        fill="white" />
</svg>